<svg xmlns="http://www.w3.org/2000/svg" version="1.1" xmlns:xlink="http://www.w3.org/1999/xlink" width="1000" height="1000"><style>
    #light-icon {
      display: inline;
    }
    #dark-icon {
      display: none;
    }

    @media (prefers-color-scheme: dark) {
      #light-icon {
        display: none;
      }
      #dark-icon {
        display: inline;
      }
    }
  </style><g id="light-icon"><svg xmlns="http://www.w3.org/2000/svg" version="1.1" xmlns:xlink="http://www.w3.org/1999/xlink" width="1000" height="1000"><g clip-path="url(#SvgjsClipPath1113)"><rect width="1000" height="1000" fill="#000000"></rect><g transform="matrix(2,0,0,2,0,436)"><svg xmlns="http://www.w3.org/2000/svg" version="1.1" xmlns:xlink="http://www.w3.org/1999/xlink" width="500" height="64"><svg id="Layer_1" xmlns="http://www.w3.org/2000/svg" version="1.1" viewBox="0 0 500 64">
  <!-- Generator: Adobe Illustrator 29.6.0, SVG Export Plug-In . SVG Version: 2.1.1 Build 207)  -->
  <defs>
    <style>
      .st0 {
        fill: #fff;
      }

      .st1 {
        fill: #d82727;
      }
    </style>
  <clipPath id="SvgjsClipPath1113"><rect width="1000" height="1000" x="0" y="0" rx="500" ry="500"></rect></clipPath></defs>
  <path class="st0" d="M92.15,2.69h20.85v59.94h-20.85V2.69Z"></path>
  <path class="st0" d="M120.6,2.69h32.17l5.99,37.65h.84l5.99-37.65h32.17v59.94h-20.94l.17-48.21h-.84l-8.27,48.21h-17.39l-8.27-48.21h-.84l.17,48.21h-20.94V2.69Z"></path>
  <path class="st0" d="M205.37,2.69h20.85v59.94h-20.85V2.69ZM219.38,33.34h7.01c2.14,0,3.69-.25,4.64-.76.96-.51,1.59-1.41,1.9-2.7.31-1.29.46-3.35.46-6.16,0-2.98-.18-5.14-.55-6.46-.37-1.32-1.01-2.21-1.94-2.66-.93-.45-2.44-.7-4.52-.76h-7.01V2.69h13.42c4.39,0,8.08.56,11.06,1.69,2.98,1.13,5.32,3.15,7.01,6.08,1.69,2.93,2.53,7.01,2.53,12.24s-.93,8.94-2.79,11.61c-1.86,2.67-4.26,4.46-7.22,5.36-2.95.9-6.49,1.35-10.6,1.35h-13.42v-7.68Z"></path>
  <path class="st0" d="M264.85,61.53c-3.69-1.86-6.3-5.04-7.85-9.54-1.55-4.5-2.32-10.95-2.32-19.33s.77-14.83,2.32-19.33c1.55-4.5,4.16-7.68,7.85-9.54,3.69-1.86,8.96-2.79,15.83-2.79s12.14.93,15.83,2.79c3.69,1.86,6.3,5.04,7.85,9.54,1.55,4.5,2.32,10.95,2.32,19.33s-.77,14.83-2.32,19.33c-1.55,4.5-4.17,7.68-7.85,9.54-3.69,1.86-8.96,2.79-15.83,2.79s-12.14-.93-15.83-2.79ZM283.21,51.91c.45-.79.75-2.48.89-5.07.14-2.59.21-7.32.21-14.18s-.07-11.68-.21-14.27c-.14-2.59-.44-4.26-.89-5.02-.45-.76-1.3-1.14-2.53-1.14s-2.08.38-2.53,1.14c-.45.76-.75,2.44-.89,5.02-.14,2.59-.21,7.35-.21,14.27s.07,11.6.21,14.18c.14,2.59.44,4.28.89,5.07.45.79,1.29,1.18,2.53,1.18s2.08-.39,2.53-1.18Z"></path>
  <path class="st0" d="M311.74,2.69h20.85v59.94h-20.85V2.69ZM325.76,32.41h7.01c2.14,0,3.69-.27,4.64-.8.96-.53,1.59-1.45,1.9-2.74.31-1.29.46-3.26.46-5.91s-.18-4.67-.55-5.91c-.37-1.24-1.03-2.07-1.98-2.49-.96-.42-2.45-.66-4.47-.72h-7.01V2.69h13.42c4.73,0,8.51.34,11.36,1.01,2.84.68,5.09,2.17,6.75,4.47,1.66,2.31,2.49,5.8,2.49,10.47,0,4.22-.68,7.42-2.03,9.58-1.35,2.17-3.24,3.63-5.66,4.39-2.42.76-5.66,1.25-9.71,1.48v.51h-16.63v-2.19ZM340.28,57.57c-.39-1.74-.59-3.66-.59-5.74,0-1.13.03-1.97.08-2.53v-1.86c0-2.2-.2-4.04-.59-5.53-.39-1.49-1.06-2.63-1.98-3.42-.93-.79-2.24-1.18-3.93-1.18h-7.51v-4.14h16.63v1.86h5.66c3.71,0,6.44.55,8.19,1.65,1.74,1.1,2.84,2.52,3.29,4.26.45,1.75.68,4.14.68,7.18,0,1.13-.03,1.97-.08,2.53v2.45c0,1.91.15,3.63.46,5.15.31,1.52.89,2.98,1.73,4.39h-19.67c-1.18-1.63-1.97-3.32-2.36-5.07Z"></path>
  <rect class="st0" x="361.89" y="2.69" width="32.93" height="13.85"></rect>
  <polygon class="st0" points="386.4 62.63 426.85 10.52 416.46 5.41 441.06 2.69 447.99 23.08 437.52 16.13 407.36 63.01 386.4 62.63"></polygon>
  <rect class="st0" x="375.98" y="2.69" width="20.86" height="59.94"></rect>
  <polygon class="st0" points="402.86 16.54 394.82 16.54 394.82 2.69 402.22 2.69 402.23 2.83 402.86 16.54"></polygon>
  <polygon class="st0" points="402.22 2.69 450.28 62.63 432.95 62.63 394.82 16.54 402.22 2.69"></polygon>
  <polygon class="st1" points="396.83 62.63 428.13 11.23 426.85 10.52 396.83 49.19 396.83 49.19 396.83 62.63"></polygon>
</svg></svg></g></g></svg></g><g id="dark-icon"><svg xmlns="http://www.w3.org/2000/svg" version="1.1" xmlns:xlink="http://www.w3.org/1999/xlink" width="1000" height="1000"><g clip-path="url(#SvgjsClipPath1114)"><rect width="1000" height="1000" fill="#080101"></rect><g transform="matrix(2,0,0,2,0,436)"><svg xmlns="http://www.w3.org/2000/svg" version="1.1" xmlns:xlink="http://www.w3.org/1999/xlink" width="500" height="64"><svg id="Layer_1" xmlns="http://www.w3.org/2000/svg" version="1.1" viewBox="0 0 500 64">
  <!-- Generator: Adobe Illustrator 29.6.0, SVG Export Plug-In . SVG Version: 2.1.1 Build 207)  -->
  <defs>
    <style>
      .st0 {
        fill: #fff;
      }

      .st1 {
        fill: #d82727;
      }
    </style>
  <clipPath id="SvgjsClipPath1114"><rect width="1000" height="1000" x="0" y="0" rx="500" ry="500"></rect></clipPath></defs>
  <path class="st0" d="M92.15,2.69h20.85v59.94h-20.85V2.69Z"></path>
  <path class="st0" d="M120.6,2.69h32.17l5.99,37.65h.84l5.99-37.65h32.17v59.94h-20.94l.17-48.21h-.84l-8.27,48.21h-17.39l-8.27-48.21h-.84l.17,48.21h-20.94V2.69Z"></path>
  <path class="st0" d="M205.37,2.69h20.85v59.94h-20.85V2.69ZM219.38,33.34h7.01c2.14,0,3.69-.25,4.64-.76.96-.51,1.59-1.41,1.9-2.7.31-1.29.46-3.35.46-6.16,0-2.98-.18-5.14-.55-6.46-.37-1.32-1.01-2.21-1.94-2.66-.93-.45-2.44-.7-4.52-.76h-7.01V2.69h13.42c4.39,0,8.08.56,11.06,1.69,2.98,1.13,5.32,3.15,7.01,6.08,1.69,2.93,2.53,7.01,2.53,12.24s-.93,8.94-2.79,11.61c-1.86,2.67-4.26,4.46-7.22,5.36-2.95.9-6.49,1.35-10.6,1.35h-13.42v-7.68Z"></path>
  <path class="st0" d="M264.85,61.53c-3.69-1.86-6.3-5.04-7.85-9.54-1.55-4.5-2.32-10.95-2.32-19.33s.77-14.83,2.32-19.33c1.55-4.5,4.16-7.68,7.85-9.54,3.69-1.86,8.96-2.79,15.83-2.79s12.14.93,15.83,2.79c3.69,1.86,6.3,5.04,7.85,9.54,1.55,4.5,2.32,10.95,2.32,19.33s-.77,14.83-2.32,19.33c-1.55,4.5-4.17,7.68-7.85,9.54-3.69,1.86-8.96,2.79-15.83,2.79s-12.14-.93-15.83-2.79ZM283.21,51.91c.45-.79.75-2.48.89-5.07.14-2.59.21-7.32.21-14.18s-.07-11.68-.21-14.27c-.14-2.59-.44-4.26-.89-5.02-.45-.76-1.3-1.14-2.53-1.14s-2.08.38-2.53,1.14c-.45.76-.75,2.44-.89,5.02-.14,2.59-.21,7.35-.21,14.27s.07,11.6.21,14.18c.14,2.59.44,4.28.89,5.07.45.79,1.29,1.18,2.53,1.18s2.08-.39,2.53-1.18Z"></path>
  <path class="st0" d="M311.74,2.69h20.85v59.94h-20.85V2.69ZM325.76,32.41h7.01c2.14,0,3.69-.27,4.64-.8.96-.53,1.59-1.45,1.9-2.74.31-1.29.46-3.26.46-5.91s-.18-4.67-.55-5.91c-.37-1.24-1.03-2.07-1.98-2.49-.96-.42-2.45-.66-4.47-.72h-7.01V2.69h13.42c4.73,0,8.51.34,11.36,1.01,2.84.68,5.09,2.17,6.75,4.47,1.66,2.31,2.49,5.8,2.49,10.47,0,4.22-.68,7.42-2.03,9.58-1.35,2.17-3.24,3.63-5.66,4.39-2.42.76-5.66,1.25-9.71,1.48v.51h-16.63v-2.19ZM340.28,57.57c-.39-1.74-.59-3.66-.59-5.74,0-1.13.03-1.97.08-2.53v-1.86c0-2.2-.2-4.04-.59-5.53-.39-1.49-1.06-2.63-1.98-3.42-.93-.79-2.24-1.18-3.93-1.18h-7.51v-4.14h16.63v1.86h5.66c3.71,0,6.44.55,8.19,1.65,1.74,1.1,2.84,2.52,3.29,4.26.45,1.75.68,4.14.68,7.18,0,1.13-.03,1.97-.08,2.53v2.45c0,1.91.15,3.63.46,5.15.31,1.52.89,2.98,1.73,4.39h-19.67c-1.18-1.63-1.97-3.32-2.36-5.07Z"></path>
  <rect class="st0" x="361.89" y="2.69" width="32.93" height="13.85"></rect>
  <polygon class="st0" points="386.4 62.63 426.85 10.52 416.46 5.41 441.06 2.69 447.99 23.08 437.52 16.13 407.36 63.01 386.4 62.63"></polygon>
  <rect class="st0" x="375.98" y="2.69" width="20.86" height="59.94"></rect>
  <polygon class="st0" points="402.86 16.54 394.82 16.54 394.82 2.69 402.22 2.69 402.23 2.83 402.86 16.54"></polygon>
  <polygon class="st0" points="402.22 2.69 450.28 62.63 432.95 62.63 394.82 16.54 402.22 2.69"></polygon>
  <polygon class="st1" points="396.83 62.63 428.13 11.23 426.85 10.52 396.83 49.19 396.83 49.19 396.83 62.63"></polygon>
</svg></svg></g></g></svg></g></svg>